<?xml version="1.0" standalone="no"?>
<!DOCTYPE svg PUBLIC "-//W3C//DTD SVG 20010904//EN"
 "http://www.w3.org/TR/2001/REC-SVG-20010904/DTD/svg10.dtd">
<svg version="1.0" xmlns="http://www.w3.org/2000/svg"
 width="512.000000pt" height="512.000000pt" viewBox="0 0 512.000000 512.000000"
 preserveAspectRatio="xMidYMid meet">

<g transform="translate(0.000000,512.000000) scale(0.100000,-0.100000)"
fill="#000000" stroke="none">
<path d="M1743 4573 l-371 -216 -4 -76 c-5 -70 -3 -77 19 -94 28 -23 30 -62 3
-77 -14 -8 -20 -21 -20 -45 0 -19 -2 -35 -5 -35 -3 0 -65 35 -137 77 -73 42
-137 76 -143 76 -7 0 -177 -96 -378 -213 l-367 -213 0 -83 c0 -74 2 -83 20
-89 27 -9 27 -60 0 -75 -17 -9 -20 -21 -20 -90 0 -69 3 -81 20 -90 14 -7 20
-21 20 -45 0 -18 5 -37 11 -41 6 -3 -2 -14 -20 -25 -30 -18 -31 -20 -31 -99 0
-68 3 -81 19 -89 12 -7 20 -24 23 -52 3 -33 -1 -44 -18 -57 -22 -17 -22 -18
-27 -539 l-5 -523 112 -64 c61 -36 302 -175 536 -311 478 -276 427 -258 576
-209 198 64 440 208 550 326 l54 59 0 165 c0 90 3 164 8 164 4 0 67 -36 141
-79 132 -77 134 -78 177 -68 l43 10 3 130 3 129 271 157 c149 86 296 170 325
186 l54 31 3 417 c2 412 2 416 -19 427 -18 10 -29 3 -92 -57 -82 -77 -177
-143 -292 -201 -85 -42 -248 -105 -302 -117 -32 -6 -33 -6 -33 27 0 33 1 33
83 58 101 30 332 145 452 224 50 33 116 86 148 118 l57 59 0 83 c0 77 -2 85
-24 99 -22 15 -25 14 -82 -44 -107 -110 -303 -224 -503 -293 -57 -20 -109 -36
-117 -36 -9 0 -14 11 -14 33 0 32 1 32 83 57 186 55 520 248 611 352 l46 53 0
82 c0 72 -2 84 -20 93 -15 8 -20 8 -20 -1 0 -22 -69 -96 -142 -152 -136 -103
-330 -199 -506 -251 l-53 -15 3 35 c3 35 4 35 93 65 202 67 496 238 593 344
l52 57 0 82 0 82 -527 305 c-289 167 -531 307 -537 311 -6 3 -178 -91 -383
-209z m377 -1247 c0 -47 -148 -175 -307 -265 -109 -62 -334 -151 -381 -151 -9
0 -12 10 -10 31 3 30 7 32 98 63 173 59 445 209 550 305 25 22 46 40 48 41 1
0 2 -11 2 -24z m-4 -269 c-7 -30 -121 -139 -200 -191 -126 -83 -356 -188 -463
-211 -32 -6 -33 -6 -33 27 0 33 0 33 92 62 163 52 446 207 563 309 22 19 42
33 44 31 2 -1 1 -14 -3 -27z m820 -142 c12 -50 -59 -145 -99 -129 -23 8 -23
71 0 104 38 56 88 68 99 25z m-816 -146 c0 -57 -219 -228 -401 -313 -85 -39
-267 -106 -290 -106 -5 0 -9 15 -9 33 0 33 1 34 75 56 101 31 240 95 360 165
95 56 238 157 251 177 9 15 14 10 14 -12z m-227 -423 c40 -31 3 -140 -55 -160
-38 -14 -78 14 -78 55 0 82 80 145 133 105z"/>
<path d="M3853 1648 c-40 -23 -73 -47 -73 -53 0 -12 82 -65 101 -65 24 1 154
78 154 91 0 12 -80 67 -100 68 -5 0 -43 -18 -82 -41z"/>
<path d="M3978 1558 c-49 -28 -88 -56 -88 -62 0 -7 24 -25 53 -40 l52 -29 93
52 c50 29 92 56 92 61 0 9 -95 70 -108 70 -4 0 -46 -24 -94 -52z"/>
<path d="M3658 1534 c-43 -24 -78 -48 -78 -52 0 -4 23 -22 52 -39 l52 -32 80
43 c44 24 82 48 84 54 2 7 -97 73 -110 72 -2 0 -38 -21 -80 -46z"/>
<path d="M4158 1502 c-26 -15 -50 -32 -52 -39 -3 -7 19 -26 49 -43 l54 -31 55
32 c31 17 56 35 56 39 0 8 -102 71 -111 69 -2 0 -25 -12 -51 -27z"/>
<path d="M3768 1434 c-43 -25 -78 -49 -78 -53 0 -4 24 -21 53 -39 l54 -32 78
43 c43 24 80 48 82 53 3 8 -72 57 -107 71 -3 1 -40 -18 -82 -43z"/>
<path d="M3467 1424 c-42 -25 -77 -49 -77 -53 0 -5 22 -23 50 -41 l49 -31 81
43 c46 25 79 48 78 56 -2 7 -26 26 -53 42 l-50 29 -78 -45z"/>
<path d="M4013 1417 c-29 -17 -53 -35 -53 -38 0 -4 23 -22 52 -40 l51 -33 55
30 c31 16 57 35 59 40 3 8 -67 55 -107 71 -3 1 -29 -12 -57 -30z"/>
<path d="M3580 1330 c-35 -22 -66 -43 -68 -48 -3 -10 95 -75 106 -70 60 28
152 83 152 92 0 12 -93 66 -113 65 -6 0 -41 -18 -77 -39z"/>
<path d="M3650 1207 c-147 -85 -265 -159 -265 -167 0 -7 22 -26 49 -42 l48
-29 77 44 c42 24 165 95 274 157 108 62 197 116 197 120 0 9 -95 70 -108 70
-4 0 -127 -69 -272 -153z"/>
<path d="M3268 1309 c-38 -22 -68 -45 -68 -52 1 -7 22 -25 47 -41 l46 -30 51
27 c76 40 116 66 116 74 0 10 -94 63 -111 63 -8 0 -44 -18 -81 -41z"/>
<path d="M3397 1223 c-42 -25 -77 -49 -77 -53 0 -5 24 -22 54 -39 l53 -31 77
43 c42 23 76 47 76 52 0 6 -24 25 -53 41 l-53 31 -77 -44z"/>
<path d="M3073 1197 c-40 -23 -73 -46 -73 -52 1 -11 85 -65 101 -65 19 0 159
82 159 93 0 12 -89 67 -106 67 -5 0 -42 -19 -81 -43z"/>
<path d="M3792 1070 l-203 -118 68 -41 c38 -22 93 -56 123 -75 l53 -35 57 32
c288 165 370 213 370 219 0 4 -30 21 -67 39 -36 17 -91 47 -122 65 -31 19 -60
34 -66 33 -5 0 -101 -54 -213 -119z"/>
<path d="M3213 1116 c-40 -22 -73 -46 -73 -53 0 -11 90 -75 100 -71 64 31 150
86 148 96 -2 7 -26 25 -53 41 l-50 29 -72 -42z"/>
<path d="M2883 1088 c-40 -23 -73 -48 -73 -54 0 -7 22 -26 48 -42 l49 -30 79
43 c43 24 80 48 82 53 3 9 -93 72 -108 72 -3 0 -38 -19 -77 -42z"/>
<path d="M3023 1007 c-40 -23 -73 -47 -73 -54 0 -6 22 -25 49 -42 l50 -30 76
42 c45 25 74 48 73 56 -2 7 -26 26 -53 42 l-50 28 -72 -42z"/>
<path d="M3278 993 c-27 -14 -48 -32 -48 -38 0 -7 22 -26 48 -42 l49 -30 56
29 c31 15 57 34 57 41 0 11 -89 67 -106 67 -5 0 -30 -12 -56 -27z"/>
<path d="M3138 912 c-27 -15 -48 -32 -48 -38 0 -7 22 -26 48 -43 l49 -31 56
31 c31 17 57 35 57 40 0 10 -89 69 -105 69 -5 -1 -31 -13 -57 -28z"/>
</g>
</svg>
